<svg width="519" height="815" viewBox="0 0 519 815" fill="none" xmlns="http://www.w3.org/2000/svg">
<path d="M140.973 218C104.973 172.5 115.473 114.5 137.473 81.5C79.473 138.3 96.4731 207.5 129.475 245.5C214.808 333.667 392.075 516.1 418.475 540.5C453.973 589.5 454.473 635.5 431.975 687C487.575 629 462.639 558.833 442.973 531C347.306 432.833 163.218 246.115 140.973 218Z" fill="#202020"/>
<path d="M92.6801 263C56.6798 217.5 67.1798 159.5 89.1798 126.5C31.18 183.3 48.1801 252.5 81.182 290.5C166.515 378.667 343.782 561.1 370.182 585.5C405.68 634.5 406.18 680.5 383.682 732C439.282 674 414.346 603.833 394.68 576C299.013 477.833 114.925 291.115 92.6801 263Z" fill="#202020"/>
<path d="M262.654 0H493.973C507.78 0 518.974 11.0685 518.945 24.8756C518.549 215.989 513.973 572.5 513.973 572.5C513.973 572.5 504.473 622 477.973 641.5C505.973 592.5 496.973 537.5 473.973 505.5L177.545 202.172C103.907 126.82 157.295 0 262.654 0Z" fill="#0B3D2E"/>
<path d="M256.292 815H24.9728C11.1656 815 -0.0285707 803.931 5.4778e-05 790.124C0.396234 599.011 4.97277 242.5 4.97277 242.5C4.97277 242.5 14.4728 193 40.9728 173.5C12.9728 222.5 21.9728 277.5 44.9728 309.5L341.4 612.828C415.038 688.18 361.651 815 256.292 815Z" fill="#0B3D2E"/>
</svg>
